# xmcd CD database file
#
# Track frame offsets:
#	150
#	16407
#	31239
#	43080
#	60591
#	75272
#	97059
#	109747
#	125190
#	135223
#	145206
#	161569
#	177331
#	192375
#	205208
#	219794
#	232187
#	244191
#	257765
#	271806
#	287689
#	301656
#	315114
#	329937
#	345597
#
# Disc length: 4795 seconds
#
# Revision: 2
# Processed by: cddbd v1.4PL0 Copyright (c) Steve Scherf et al.
# Submitted via: CDex 1.50Beta5
#
DISCID=6612b919
DTITLE=Various Artist - Die schönsten Country and Trucker Hits CD1
DYEAR=1900
DGENRE=Country
TTITLE0=Gunter Gabriel/Ich bin CB-Funker
TTITLE1=Vanessa/Die Jahre ziehn so schnell ins Land
TTITLE2=Tom Astor/Hallo,Guten Morgen Freunde
TTITLE3=Annne Karin/Hätt Ichs geahnt
TTITLE4=Johnny Hill/Ruf Teddybär Eins Vier
TTITLE5=Ralph Paulsen/Ein Herz für Cowboys
TTITLE6=Peter Hinnen/Ich wär so gern in Lousianna
TTITLE7=Renate Kern/Er nahm ein anderes Mädchen
TTITLE8=Nashville Music Company/Von den blauen Bergen kommen wir
TTITLE9=Peter Held/Gehn wir nochmals den Weg nach Westen
TTITLE10=Bernd Cüver/Jeder tut was er kann
TTITLE11=Roxy Rose/Ich bin keine Traumfrau
TTITLE12=Jan Hayston/Du machst mir gute Laune
TTITLE13=Holger Stern/Ich bin ein einsamer Reiter
TTITLE14=Sasjy Velt/Ich könnt mit den Wölfen heulen
TTITLE15=Peter Kraus/Das alte Haus von Rocky Docky
TTITLE16=Marion Maerz/Wer Liebe sucht
TTITLE17=John Brack/Das Leben ist wie eine Bergstraße
TTITLE18=Chris Lee Markus)/Kleiner Joe
TTITLE19=The Forty Niners/Staubige Stiefel und ein dreckiges Hemd
TTITLE20=Truckerlady Tina/Freiheit
TTITLE21=Will Nelson/Kleine Jenny
TTITLE22=The Rangers/Amerika
TTITLE23=Andre Lamberz and Hills Angels/Auf der Autobahn
TTITLE24=Olivia Winter/Ich war noch nie in Kansas City
EXTD=
EXTT0=
EXTT1=
EXTT2=
EXTT3=
EXTT4=
EXTT5=
EXTT6=
EXTT7=
EXTT8=
EXTT9=
EXTT10=
EXTT11=
EXTT12=
EXTT13=
EXTT14=
EXTT15=
EXTT16=
EXTT17=
EXTT18=
EXTT19=
EXTT20=
EXTT21=
EXTT22=
EXTT23=
EXTT24=
PLAYORDER=
